<?xml version="1.0" encoding="UTF-8"?>
<svg version="1.1" xmlns="http://www.w3.org/2000/svg" width="1024" height="1024">
<path d="M0 0 C337.92 0 675.84 0 1024 0 C1024 337.92 1024 675.84 1024 1024 C686.08 1024 348.16 1024 0 1024 C0 686.08 0 348.16 0 0 Z " fill="#FAFAFA" transform="translate(0,0)"/>
<path d="M0 0 C337.92 0 675.84 0 1024 0 C1024 337.92 1024 675.84 1024 1024 C686.08 1024 348.16 1024 0 1024 C0 686.08 0 348.16 0 0 Z M233.6875 109.25 C232.62063965 109.47252441 231.5537793 109.69504883 230.45458984 109.92431641 C173.9504368 121.92183147 118.20256335 152.25206689 85 201 C84.54012695 201.6585498 84.08025391 202.31709961 83.60644531 202.99560547 C61.29630273 234.96961578 46.03244926 270.33734695 40 309 C39.81526123 310.10786865 39.63052246 311.2157373 39.44018555 312.35717773 C37.67994332 324.25034701 37.66202577 336.11970491 37.68432617 348.12475586 C37.68747868 351.66356464 37.66397466 355.20152869 37.63867188 358.74023438 C37.59878265 372.77002843 38.5364574 386.19190721 41 400 C41.23812561 401.4032764 41.47554649 402.80667262 41.7121582 404.21020508 C44.48083901 420.11006041 47.77337915 435.71332763 53 451 C53.3398291 452.01497559 53.6796582 453.02995117 54.02978516 454.07568359 C65.75067814 488.88925141 81.1612574 521.4819742 100 553 C100.91424226 554.54807094 101.82831935 556.09623944 102.7421875 557.64453125 C117.13617908 581.8151114 133.66467623 604.85693984 151 627 C151.91540657 628.17444644 152.83076982 629.34892665 153.74609375 630.5234375 C162.43858457 641.65483948 171.3927824 652.52077891 180.671875 663.16796875 C183.32931925 666.21970859 185.95795721 669.29450344 188.57763672 672.37866211 C193.9743235 678.72566976 199.5277593 684.89735907 205.20703125 690.9921875 C207.62867229 693.59154113 210.0090178 696.22475007 212.375 698.875 C225.8613028 713.86292565 239.99432969 728.15206721 254.26074219 742.39111328 C257.28973331 745.41436243 260.31414816 748.44214391 263.33729362 751.47123718 C265.69651911 753.83409334 268.05814197 756.19454185 270.42047501 758.55429077 C271.53662305 759.66977883 272.65204857 760.78599039 273.7666893 761.90298462 C279.16874709 767.31396383 284.57338851 772.67100948 290.40530396 777.62548828 C292.72954675 779.6288161 294.86042999 781.80260377 297 784 C300.42566284 787.46194066 303.9157024 790.73337001 307.61328125 793.8984375 C310.93263536 796.82120756 314.14921771 799.8496833 317.375 802.875 C322.43007794 807.61219154 327.51133522 812.31179019 332.6796875 816.92578125 C334.27562202 818.35244999 335.86376125 819.78787168 337.4453125 821.23046875 C341.66353108 825.07182454 345.93321924 828.79353546 350.375 832.375 C354.3882655 835.61952732 358.22413126 838.98749324 362 842.5 C366.55112854 846.72948628 371.24297098 850.72080131 376.08203125 854.6171875 C379.45974135 857.37542466 382.76204599 860.21275315 386.0625 863.0625 C390.72279588 867.07775493 395.43048727 871.00593421 400.2578125 874.8203125 C403.78044227 877.62035154 407.26318411 880.46807905 410.75 883.3125 C416.35859248 887.88171038 422.01057794 892.38777356 427.71435547 896.83740234 C432.15273245 900.30922727 436.51726047 903.86526215 440.875 907.4375 C446.8223976 912.30446688 452.8908787 916.96903537 459.06323242 921.54614258 C464.32988042 925.46336134 469.4637606 929.52605836 474.57324219 933.64526367 C479.47661517 937.59491643 484.43982062 941.45185684 489.453125 945.26171875 C492.23074449 947.38535274 494.95406006 949.56994374 497.671875 951.76953125 C498.48100342 952.41744629 499.29013184 953.06536133 500.1237793 953.73291016 C501.72718192 955.01800791 503.32269554 956.31302239 504.90942383 957.61865234 C505.64185303 958.20211426 506.37428223 958.78557617 507.12890625 959.38671875 C507.77931885 959.91483154 508.42973145 960.44294434 509.09985352 960.98706055 C510.93738064 962.18613419 510.93738064 962.18613419 513 961.83886719 C515.27802883 960.88338537 516.93752578 959.73026098 518.87109375 958.19140625 C519.60328125 957.61455078 520.33546875 957.03769531 521.08984375 956.44335938 C521.86457031 955.82267578 522.63929688 955.20199219 523.4375 954.5625 C525.07138039 953.27183889 526.70549608 951.9814756 528.33984375 950.69140625 C529.13890137 950.05734863 529.93795898 949.42329102 530.76123047 948.77001953 C533.65252911 946.4840964 536.57258031 944.23949476 539.5 942 C547.69663637 935.70523134 555.85147422 929.356876 564 923 C564.65742187 922.48727539 565.31484375 921.97455078 565.9921875 921.44628906 C572.73765649 916.18076478 579.4347123 910.86722795 586.04296875 905.4296875 C589.58038546 902.52311789 593.13309105 899.63574509 596.6875 896.75 C597.70734985 895.92157593 597.70734985 895.92157593 598.74780273 895.07641602 C602.15876389 892.30593577 605.57087975 889.53688858 608.984375 886.76953125 C622.33446602 875.94268165 635.65300261 865.08780201 648.671875 853.86328125 C651.93028483 851.05447114 655.21229096 848.27440863 658.5 845.5 C668.31171729 837.20743918 678.09352347 828.90713908 687.5625 820.22265625 C689.64272725 818.32578236 691.74556898 816.46607057 693.875 814.625 C698.56246206 810.54977788 703.1010545 806.31528883 707.65625 802.09375 C710.673946 799.29753628 713.71039014 796.52239141 716.75 793.75 C728.22867648 783.238779 739.57014052 772.60349711 750.47167969 761.49145508 C753.47100074 758.45045474 756.50283453 755.5228944 759.74609375 752.7421875 C764.72066812 748.44988878 769.36010376 743.82596511 774.00292969 739.18237305 C775.52002025 737.66750914 777.04499737 736.16087408 778.5703125 734.65429688 C779.53694493 733.690592 780.50310897 732.72641702 781.46875 731.76171875 C782.33951172 730.89506592 783.21027344 730.02841309 784.10742188 729.13549805 C786.22108617 727.22611233 786.22108617 727.22611233 786 725 C786.66 725 787.32 725 788 725 C789.33000656 723.68416327 789.33000656 723.68416327 790.75 721.875 C794.29382571 717.69090326 798.10182233 713.84854868 802 710 C806.19496473 705.8447696 810.28999319 701.6867359 814.10546875 697.17578125 C816.78081928 694.10326528 819.5859653 691.15663841 822.375 688.1875 C827.0760064 683.16691056 831.51994764 678.01995551 835.8203125 672.6484375 C838.1467082 669.82174165 840.5817193 667.12941098 843.0625 664.4375 C846.80655263 660.36038747 850.33642153 656.19249531 853.75390625 651.83984375 C855.47173549 649.66791008 857.20713881 647.51821453 858.96484375 645.37890625 C866.02604342 636.78127148 872.84191299 628.04564991 879.44775391 619.09375 C881.03002124 616.9595058 882.62875354 614.83842806 884.23046875 612.71875 C907.62535468 581.59477097 929.19836599 548.11329427 946.04199219 512.98535156 C947.05538784 510.88521563 948.09333791 508.79827706 949.1328125 506.7109375 C955.14715888 494.48968014 960.05174403 481.91266369 964.80883789 469.15649414 C965.61732133 467.01407102 966.44264104 464.87794077 967.28295898 462.74780273 C970.13033261 455.52573481 972.52199947 448.30127979 974.5625 440.8125 C974.8605957 439.72735107 975.15869141 438.64220215 975.46582031 437.52416992 C987.96147079 391.50169664 992.29231795 338.65255317 981 292 C980.77006348 291.00564941 980.54012695 290.01129883 980.30322266 288.98681641 C970.03875592 245.30653441 947.55772954 207.47342818 917 175 C916.38382813 174.34128906 915.76765625 173.68257813 915.1328125 173.00390625 C910.16234308 167.8550707 904.60911422 163.42757213 899 159 C898.36739258 158.49629883 897.73478516 157.99259766 897.08300781 157.47363281 C887.46177108 149.8382414 877.74243422 142.95697789 867 137 C866.28650391 136.5968457 865.57300781 136.19369141 864.83789062 135.77832031 C829.45201295 115.88332167 788.30275362 105.31583803 747.7512207 105.66381836 C744.80327149 105.68757437 741.85622526 105.68432295 738.90820312 105.67773438 C721.93334563 105.70285034 705.57453501 107.23703799 689 111 C687.72769531 111.28746094 686.45539062 111.57492188 685.14453125 111.87109375 C649.03451633 120.32065804 615.64554219 137.53521861 587 161 C586.4328125 161.46422363 585.865625 161.92844727 585.28125 162.40673828 C570.15369348 174.90936517 555.87709045 188.57695735 544.20166016 204.39257812 C543.03268153 205.95628298 541.81953104 207.48665912 540.60546875 209.015625 C530.83695467 221.32489961 522.01101379 234.50252933 514.27050781 248.17504883 C513.85124023 248.77728271 513.43197266 249.3795166 513 250 C512.34 250 511.68 250 511 250 C509.29229388 247.38335353 507.69592853 244.76006512 506.125 242.0625 C497.48549672 227.59248088 487.64811372 214.05240377 477 201 C476.56316895 200.45875488 476.12633789 199.91750977 475.67626953 199.35986328 C463.0809197 183.83902241 448.88087046 168.997312 432.67871094 157.22998047 C430.92194482 155.94280948 429.1987935 154.61811586 427.4765625 153.28515625 C399.56161527 131.90509178 366.25665802 117.62705995 332 110.3125 C331.06422119 110.11003662 330.12844238 109.90757324 329.16430664 109.69897461 C314.46546155 106.68018089 300.0506269 105.68732113 285.0793457 105.79418945 C282.43626215 105.81250858 279.79353138 105.81469757 277.15039062 105.81445312 C262.48974213 105.84262288 248.07990163 106.16608222 233.6875 109.25 Z " fill="#000000" transform="translate(0,0)"/>
<path d="M0 0 C0.66 0 1.32 0 2 0 C2.51046875 1.17755859 2.51046875 1.17755859 3.03125 2.37890625 C8.05320028 13.26425062 13.78827324 18.82155554 25 23 C25 23.66 25 24.32 25 25 C24.21496094 25.3403125 23.42992187 25.680625 22.62109375 26.03125 C11.73574938 31.05320028 6.17844446 36.78827324 2 48 C1.34 48 0.68 48 0 48 C-0.3403125 47.21496094 -0.680625 46.42992187 -1.03125 45.62109375 C-6.05320028 34.73574938 -11.78827324 29.17844446 -23 25 C-23 24.34 -23 23.68 -23 23 C-22.21496094 22.6596875 -21.42992187 22.319375 -20.62109375 21.96875 C-9.73574938 16.94679972 -4.17844446 11.21172676 0 0 Z " fill="#7D7D7D" transform="translate(967,944)"/>
</svg>
